<svg width="120" height="121" viewBox="0 0 120 121" fill="none" xmlns="http://www.w3.org/2000/svg">
<path fill-rule="evenodd" clip-rule="evenodd" d="M117.027 1.00012L90.0281 0.756893C88.3713 0.741967 87.0161 2.07296 87.0012 3.72975C86.9863 5.38653 88.3173 6.74172 89.9741 6.75665L106.318 6.90389L98.3598 14.862C87.9603 6.20623 74.5881 1 60 1C26.8629 1 0 27.8629 0 61C0 94.1371 26.8629 121 60 121C93.1371 121 120 94.1371 120 61C120 46.4119 114.794 33.0397 106.138 22.6402L113.902 14.8763L113.757 30.9719C113.742 32.6287 115.073 33.9839 116.73 33.9988C118.387 34.0137 119.742 32.6827 119.757 31.0259L120 4.02703C120.015 2.37024 118.684 1.01505 117.027 1.00012ZM60 10.0745C72.0814 10.0745 83.1802 14.2815 91.9113 21.3105L90.1253 23.0966C81.9313 16.7663 71.6555 13 60.5 13C33.7142 13 12 34.7142 12 61.5C12 88.2858 33.7142 110 60.5 110C87.2858 110 109 88.2858 109 61.5C109 49.8332 104.881 39.1286 98.0169 30.7613L99.6895 29.0887C106.718 37.8198 110.925 48.9186 110.925 61C110.925 89.1254 88.1254 111.925 60 111.925C31.8746 111.925 9.07451 89.1254 9.07451 61C9.07451 32.8746 31.8746 10.0745 60 10.0745ZM60.5 20.3352C69.628 20.3352 78.062 23.3062 84.8879 28.3339L83.6966 29.5252C77.1833 24.7918 69.1677 22 60.5 22C38.6848 22 21 39.6848 21 61.5C21 83.3152 38.6848 101 60.5 101C82.3152 101 100 83.3152 100 61.5C100 52.3197 96.8682 43.8708 91.6147 37.1635L92.8002 35.978C98.3509 42.9933 101.665 51.8597 101.665 61.5C101.665 84.2347 83.2347 102.665 60.5 102.665C37.7653 102.665 19.3352 84.2347 19.3352 61.5C19.3352 38.7653 37.7653 20.3352 60.5 20.3352ZM60.5 27.9741C67.515 27.9741 74.0268 30.1286 79.4098 33.812L77.4887 35.7331C66.0719 27.9571 50.3843 29.1321 40.2582 39.2582C28.8028 50.7136 28.8028 69.2864 40.2582 80.7418C51.7136 92.1972 70.2864 92.1972 81.7418 80.7418C91.8679 70.6157 93.0429 54.9281 85.2669 43.5113L87.3534 41.4247C91.5439 47.0211 94.0259 53.9707 94.0259 61.5C94.0259 80.0159 79.0159 95.0259 60.5 95.0259C41.9841 95.0259 26.9741 80.0159 26.9741 61.5C26.9741 42.9841 41.9841 27.9741 60.5 27.9741Z" fill="#59DBF8"/>
</svg>
